<?xml version="1.0" encoding="UTF-8" standalone="no"?>
<!-- Created with Inkscape (http://www.inkscape.org/) -->

<svg
   version="1.1"
   id="svg2"
   xml:space="preserve"
   width="693.33331"
   height="682.66669"
   viewBox="0 0 693.33331 682.66669"
   sodipodi:docname="github-logo.svg"
   inkscape:version="1.1.2 (0a00cf5339, 2022-02-04)"
   xmlns:inkscape="http://www.inkscape.org/namespaces/inkscape"
   xmlns:sodipodi="http://sodipodi.sourceforge.net/DTD/sodipodi-0.dtd"
   xmlns="http://www.w3.org/2000/svg"
   xmlns:svg="http://www.w3.org/2000/svg"><defs
     id="defs6"><clipPath
       clipPathUnits="userSpaceOnUse"
       id="clipPath16"><path
         d="M 0,512 H 520 V 0 H 0 Z"
         id="path14" /></clipPath></defs><sodipodi:namedview
     id="namedview4"
     pagecolor="#ffffff"
     bordercolor="#666666"
     borderopacity="1.0"
     inkscape:pageshadow="2"
     inkscape:pageopacity="0.0"
     inkscape:pagecheckerboard="0"
     showgrid="false"
     inkscape:zoom="1.2788086"
     inkscape:cx="346.80719"
     inkscape:cy="340.94235"
     inkscape:window-width="1920"
     inkscape:window-height="1171"
     inkscape:window-x="0"
     inkscape:window-y="0"
     inkscape:window-maximized="1"
     inkscape:current-layer="g8" /><g
     id="g8"
     inkscape:groupmode="layer"
     inkscape:label="github-seeklogo.com"
     transform="matrix(1.3333333,0,0,-1.3333333,0,682.66667)"><g
       id="g10"><g
         id="g12"
         clip-path="url(#clipPath16)"><g
           id="g18"
           transform="translate(488.6333,250.4355)"><path
             d="m 0,0 c 0,126.271 -102.363,228.633 -228.633,228.633 -126.271,0 -228.634,-102.362 -228.634,-228.633 0,-100.224 64.493,-185.375 154.237,-216.245 5.471,3.948 11.772,8.818 11.772,17.024 0,12.575 -0.272,44.923 -0.272,44.923 0,0 -9.925,-1.689 -24.087,-1.689 -35.687,0 -46.971,22.646 -52.342,35.322 -6.99,16.507 -16.054,24.259 -25.684,30.456 -5.914,3.809 -7.273,8.293 -0.43,9.577 31.586,5.915 39.664,-35.628 60.76,-42.253 15.057,-4.72 34.418,-2.68 44.049,3.516 1.269,12.687 10.468,23.662 18.127,29.441 -53.656,5.127 -85.47,23.662 -101.966,53.452 l -1.767,3.336 -4.146,9.464 -1.224,3.392 c -5.166,15.121 -7.455,32.439 -7.455,51.785 0,34.343 10.763,47.3 25.208,65.609 -11.046,39.155 3.966,65.914 3.966,65.914 0,0 23.225,4.789 67.127,-26.478 23.791,10.141 87.237,10.986 117.26,2.254 18.41,12.112 52.115,29.295 65.711,24.484 3.682,-5.893 11.613,-23.076 4.815,-60.822 4.611,-8.281 28.607,-25.915 28.698,-75.773 -0.385,-18.387 -2.312,-33.915 -5.881,-47.041 l -1.982,-6.715 c 0,0 -1.133,-3.166 -2.368,-6.186 l -1.45,-3.335 c -15.918,-34.77 -48.57,-47.751 -101.331,-53.148 17.096,-10.704 22.002,-24.134 22.002,-60.472 0,-36.337 -0.488,-41.216 -0.374,-49.576 0.098,-7.387 6.007,-12.698 11.321,-16.72 C -64.843,-185.849 0,-100.498 0,0"
             style="fill:#000000;fill-opacity:1;fill-rule:nonzero;stroke:none"
             id="path20" /></g></g></g></g></svg>
